<svg width="139" height="99" viewBox="0 0 139 99" fill="none" xmlns="http://www.w3.org/2000/svg">
<path d="M106.514 34.5984L105.189 34.1239L93.9693 13.0881C91.862 9.13489 88.7198 5.82884 84.8788 3.5235C81.0377 1.21815 76.6422 0.00023883 72.1624 2.05914e-08H43.9104C38.7223 -0.000211704 33.6658 1.63232 29.4573 4.66624C25.2488 7.70017 22.1019 11.9816 20.4625 16.9038L15.1146 32.9476C10.6341 34.8361 6.81027 38.0042 4.12174 42.0555C1.43321 46.1068 -0.000530407 50.8611 1.47195e-07 55.7233V66.7256C1.47195e-07 73.7441 4.18147 79.7741 10.1818 82.4926C10.9589 86.9447 13.2378 90.9962 16.639 93.9722C20.0402 96.9482 24.3584 98.6692 28.8742 98.8483C33.3901 99.0275 37.831 97.654 41.4573 94.9568C45.0835 92.2596 47.6763 88.4013 48.8036 84.0248H89.5902C90.7175 88.4013 93.3102 92.2596 96.9365 94.9568C100.563 97.654 105.004 99.0275 109.52 98.8483C114.035 98.6692 118.354 96.9482 121.755 93.9722C125.156 90.9962 127.435 86.9447 128.212 82.4926C131.246 81.1228 133.821 78.9067 135.627 76.1099C137.433 73.3132 138.394 70.0547 138.394 66.7256V63.3745C138.393 58.2729 136.813 53.2966 133.872 49.1284C130.93 44.9603 126.771 41.8047 121.964 40.0946L107.038 34.7863V34.5984H106.514ZM29.8337 20.0276C30.8178 17.0729 32.7072 14.5032 35.2338 12.6827C37.7605 10.8622 40.7962 9.88348 43.9104 9.88527H54.369V34.5984H24.9801L29.8337 20.0276ZM94.2362 34.5984H64.2542V9.88527H72.1624C74.8506 9.88431 77.4884 10.6141 79.7938 11.9967C82.0991 13.3792 83.9853 15.3624 85.2505 17.7342L94.2461 34.5984H94.2362ZM19.7705 79.0821C19.7705 76.4604 20.812 73.946 22.6659 72.0922C24.5197 70.2384 27.0341 69.1969 29.6558 69.1969C32.2775 69.1969 34.7919 70.2384 36.6457 72.0922C38.4996 73.946 39.5411 76.4604 39.5411 79.0821C39.5411 81.7039 38.4996 84.2182 36.6457 86.0721C34.7919 87.9259 32.2775 88.9674 29.6558 88.9674C27.0341 88.9674 24.5197 87.9259 22.6659 86.0721C20.812 84.2182 19.7705 81.7039 19.7705 79.0821ZM108.738 69.1969C111.36 69.1969 113.874 70.2384 115.728 72.0922C117.582 73.946 118.623 76.4604 118.623 79.0821C118.623 81.7039 117.582 84.2182 115.728 86.0721C113.874 87.9259 111.36 88.9674 108.738 88.9674C106.116 88.9674 103.602 87.9259 101.748 86.0721C99.8942 84.2182 98.8527 81.7039 98.8527 79.0821C98.8527 76.4604 99.8942 73.946 101.748 72.0922C103.602 70.2384 106.116 69.1969 108.738 69.1969Z" fill="black"/>
</svg>
