<svg width="113" height="113" viewBox="0 0 113 113" fill="none" xmlns="http://www.w3.org/2000/svg">
<path d="M107.09 56.5453L21.1635 56.5453C18.1645 56.5453 15.2328 57.4346 12.7391 59.1008C10.2455 60.767 8.30195 63.1352 7.15426 65.906C6.00657 68.6768 5.70628 71.7256 6.29137 74.6671C6.87646 77.6085 8.32064 80.3104 10.4413 82.431C12.562 84.5517 15.2638 85.9959 18.2053 86.581C21.1467 87.166 24.1956 86.8658 26.9663 85.7181C29.7371 84.5704 32.1053 82.6268 33.7715 80.1332C35.4377 77.6396 36.327 74.7079 36.327 71.7088M102.036 76.7633L66.6541 76.7633C63.655 76.7633 60.7233 77.6526 58.2297 79.3188C55.736 80.985 53.7925 83.3532 52.6448 86.124C51.4971 88.8948 51.1968 91.9436 51.7819 94.8851C52.367 97.8265 53.8112 100.528 55.9318 102.649C58.0525 104.77 60.7544 106.214 63.6958 106.799C66.6372 107.384 69.6861 107.084 72.4569 105.936C75.2277 104.788 77.5959 102.845 79.2621 100.351C80.9282 97.8576 81.8176 94.9259 81.8176 91.9268L102.036 76.7633ZM96.9811 36.3273L41.3815 36.3273C38.3825 36.3273 35.4508 35.438 32.9571 33.7718C30.4635 32.1056 28.52 29.7374 27.3723 26.9666C26.2246 24.1958 25.9243 21.1469 26.5094 18.2055C27.0945 15.2641 28.5386 12.5622 30.6593 10.4415C32.78 8.32089 35.4818 6.87671 38.4233 6.29162C41.3647 5.70653 44.4136 6.00682 47.1844 7.15451C49.9551 8.3022 52.3233 10.2458 53.9895 12.7394C55.6557 15.233 56.545 18.1647 56.545 21.1638L96.9811 36.3273Z" stroke="black" stroke-width="10.109" stroke-linecap="round" stroke-linejoin="round"/>
</svg>
