<svg width="13" height="15" viewBox="0 0 13 15" fill="none" xmlns="http://www.w3.org/2000/svg">
<path d="M1.25 15C1.25 15 0 15 0 13.75C0 12.5 1.25 8.75 6.25 8.75C11.25 8.75 12.5 12.5 12.5 13.75C12.5 15 11.25 15 11.25 15H1.25ZM6.25 7.5C7.24456 7.5 8.19839 7.10491 8.90165 6.40165C9.60491 5.69839 10 4.74456 10 3.75C10 2.75544 9.60491 1.80161 8.90165 1.09835C8.19839 0.395088 7.24456 0 6.25 0C5.25544 0 4.30161 0.395088 3.59835 1.09835C2.89509 1.80161 2.5 2.75544 2.5 3.75C2.5 4.74456 2.89509 5.69839 3.59835 6.40165C4.30161 7.10491 5.25544 7.5 6.25 7.5Z" fill="#181818"/>
</svg>
