<svg width="10" height="15" viewBox="0 0 10 15" fill="none" xmlns="http://www.w3.org/2000/svg">
<path fill-rule="evenodd" clip-rule="evenodd" d="M0.594273 4.3225C0.239273 4.3225 -0.0482262 4.02625 0.0067738 3.67625C0.350524 1.55 1.97052 0 4.78177 0C7.59427 0 9.49052 1.7 9.49052 4.01875C9.49052 5.69875 8.65927 6.87875 7.25302 7.735C5.87802 8.55875 5.48552 9.1325 5.48552 10.2475V10.285C5.48552 10.4508 5.41967 10.6097 5.30246 10.7269C5.18525 10.8442 5.02628 10.91 4.86052 10.91H3.89802C3.73334 10.91 3.57531 10.845 3.45828 10.7292C3.34124 10.6133 3.27467 10.4559 3.27302 10.2912L3.26927 10.0413C3.21552 8.515 3.86552 7.54 5.32552 6.65125C6.61302 5.86125 7.07177 5.2325 7.07177 4.11625C7.07177 2.8925 6.12427 1.99375 4.66427 1.99375C3.40302 1.99375 2.52677 2.655 2.24177 3.74625C2.15927 4.06375 1.89427 4.3225 1.56677 4.3225H0.595523H0.594273ZM4.37052 15C5.14802 15 5.73927 14.4075 5.73927 13.6375C5.73927 12.865 5.14802 12.2725 4.37052 12.2725C3.61302 12.2725 3.01177 12.865 3.01177 13.6363C3.01177 14.4075 3.61302 15 4.37052 15Z" fill="black"/>
</svg>
