<svg width="18" height="15" viewBox="0 0 18 15" fill="none" xmlns="http://www.w3.org/2000/svg">
<path fill-rule="evenodd" clip-rule="evenodd" d="M7.74291 0.722052C8.33868 -0.241832 9.30603 -0.239535 9.90038 0.722052L17.2854 12.6701C18.0807 13.9569 17.5014 15 15.9921 15H1.65119C0.141591 15 -0.439996 13.961 0.357919 12.6701L7.74291 0.722052ZM8.8219 10.2068C9.20008 10.2068 9.50664 9.8966 9.50664 9.52411V5.41159C9.50664 5.03454 9.20271 4.72889 8.8219 4.72889C8.44373 4.72889 8.13716 5.0391 8.13716 5.41159V9.52411C8.13716 9.90116 8.44109 10.2068 8.8219 10.2068ZM8.8219 12.9458C9.20008 12.9458 9.50664 12.6392 9.50664 12.261C9.50664 11.8829 9.20008 11.5763 8.8219 11.5763C8.44373 11.5763 8.13716 11.8829 8.13716 12.261C8.13716 12.6392 8.44373 12.9458 8.8219 12.9458Z" fill="black"/>
</svg>
